<?xml version="1.0" encoding="UTF-8"?>
<!-- Generator: Adobe Illustrator 15.0.2, SVG Export Plug-In . SVG Version: 6.00 Build 0)  -->
<!DOCTYPE svg PUBLIC "-//W3C//DTD SVG 1.1//EN" "http://www.w3.org/Graphics/SVG/1.1/DTD/svg11.dtd">
<svg xmlns="http://www.w3.org/2000/svg" xmlns:xlink="http://www.w3.org/1999/xlink" version="1.1" id="Layer_1" x="0px" y="0px" width="1024px" height="1024px" viewBox="0 0 1024 1024" enable-background="new 0 0 1024 1024" xml:space="preserve">
<g>
	<path d="M0,654.6l80.6,20.2h99c0-24,8-46,21.4-63.8H0V654.6z" fill="#000000"/>
	<rect y="185.4" width="652.6" height="401"/>
	<path d="M286.4,596.8c-43.199,0-78.199,35.2-78.199,78.2c0,43.2,35,78.2,78.199,78.2c43,0,78-35,78-78.2S329.4,596.8,286.4,596.8z    M286.4,717.6c-23.602,0-42.802-19-42.802-42.6c0-23.402,19.2-42.6,42.802-42.6c23.4,0,42.6,19.199,42.6,42.6   C329,698.6,309.8,717.6,286.4,717.6z" fill="#000000"/>
	<path d="M924,454.401L867.199,283.8v-42.6H689v370H371.2c13.6,17.8,21.6,39.6,21.6,63.8h332.4c0-58.8,47.8-106.6,106.8-106.6   c41.4,0,77.2,23.599,94.8,58.197C933,639,937,652.798,938,667.4c0.202,2.6,0.6,5,0.6,7.6h85.4V497.2L924,454.401z M739.4,454.6   v-128H839l42.6,128H739.4z" fill="#000000"/>
	<path d="M832,596.8c-43.2,0-78.2,35.2-78.2,78.2c0,43.2,35,78.2,78.2,78.2c43,0,78.2-35,78.2-78.2S875,596.8,832,596.8z M832,717.6   c-23.6,0-42.6-19-42.6-42.6c0-23.402,19-42.6,42.6-42.6c23.401,0,42.6,19.199,42.6,42.6C874.6,698.6,855.6,717.6,832,717.6z" fill="#000000"/>
</g>
</svg>
